# xmcd
#
# Track frame offsets: 
#        150
#        13714
#        25795
#        45745
#        66494
#        92484
#        105854
#        122679
#        143470
#        148438
#        155374
#        171671
#        184897
#
# Disc length: 2701 seconds
#
# Revision: 0
# Processed by: cddbd v1.5.2PL0 Copyright (c) Steve Scherf et al.
# Submitted via: ExactAudioCopy v1.2
#
DISCID=b10a8b0d
DTITLE=Janis Joplin - A Flower In The Sun
DYEAR=1994
DGENRE=Blues
TTITLE0=Flower In The Sun
TTITLE1=Road Block
TTITLE2=Summertime #1
TTITLE3=Piece Of My Heart
TTITLE4=All Is Loneliness
TTITLE5=Down On Me
TTITLE6=Bye Bye Baby
TTITLE7=Farewell Song
TTITLE8=Amazing Grace
TTITLE9=High Heel Sneakers
TTITLE10=Raise Your Hand
TTITLE11=Magic Of Love
TTITLE12=Summertime (Studio Outtakes)
EXTD=
EXTT0=
EXTT1=
EXTT2=
EXTT3=
EXTT4=
EXTT5=
EXTT6=
EXTT7=
EXTT8=
EXTT9=
EXTT10=
EXTT11=
EXTT12=
PLAYORDER=
